<?xml version="1.0" encoding="utf-8"?>
<!-- Generator: Adobe Illustrator 18.0.0, SVG Export Plug-In . SVG Version: 6.00 Build 0)  -->
<!DOCTYPE svg PUBLIC "-//W3C//DTD SVG 1.1//EN" "http://www.w3.org/Graphics/SVG/1.1/DTD/svg11.dtd">
<svg version="1.1" id="Layer_1" xmlns="http://www.w3.org/2000/svg" xmlns:xlink="http://www.w3.org/1999/xlink" x="0px" y="0px"
	 viewBox="0 86 612 620" enable-background="new 0 86 612 620" xml:space="preserve">
<g>
	<path opacity="0.4" fill="#FFFFFF" stroke="#FFFFFF" stroke-width="3" stroke-miterlimit="10" d="M607.1,669.5
		c0,15.9-13,28.9-28.9,28.9H32.9C17,698.4,4,685.4,4,669.5V124.2c0-15.9,13-28.9,28.9-28.9h545.3c15.9,0,28.9,13,28.9,28.9V669.5z"
		/>
	<path fill="none" stroke="#FFFFFF" stroke-width="3" stroke-miterlimit="10" d="M607.1,669.5c0,15.9-13,28.9-28.9,28.9H32.9
		C17,698.4,4,685.4,4,669.5V124.2c0-15.9,13-28.9,28.9-28.9h545.3c15.9,0,28.9,13,28.9,28.9V669.5z"/>
	<g>
		<rect x="251.7" y="161.1" fill="#BC3636" width="107.9" height="470.6"/>
		<rect x="252.2" y="161.1" fill="#BC3636" width="137.7" height="99.2"/>
		<rect x="401" y="161.1" fill="#BC3636" width="16.2" height="99.2"/>
		<rect x="221.2" y="579.6" fill="#BC3636" width="137.7" height="53.1"/>
		<rect x="193.7" y="579.6" fill="#BC3636" width="16.2" height="53.1"/>
	</g>
</g>
</svg>
